<?xml version="1.0" encoding="UTF-8" standalone="no"?>
<!-- Created with Inkscape (http://www.inkscape.org/) -->

<svg
   width="70mm"
   height="70mm"
   viewBox="0 0 70 70"
   version="1.1"
   id="svg1"
   xml:space="preserve"
   inkscape:version="1.4 (86a8ad7, 2024-10-11)"
   sodipodi:docname="compass.svg"
   xmlns:inkscape="http://www.inkscape.org/namespaces/inkscape"
   xmlns:sodipodi="http://sodipodi.sourceforge.net/DTD/sodipodi-0.dtd"
   xmlns="http://www.w3.org/2000/svg"
   xmlns:svg="http://www.w3.org/2000/svg"><sodipodi:namedview
     id="namedview1"
     pagecolor="#ffffff"
     bordercolor="#000000"
     borderopacity="0.25"
     inkscape:showpageshadow="2"
     inkscape:pageopacity="0.0"
     inkscape:pagecheckerboard="0"
     inkscape:deskcolor="#d1d1d1"
     inkscape:document-units="mm"
     inkscape:zoom="2.5779566"
     inkscape:cx="162.14392"
     inkscape:cy="90.187708"
     inkscape:window-width="1920"
     inkscape:window-height="1009"
     inkscape:window-x="-8"
     inkscape:window-y="-8"
     inkscape:window-maximized="1"
     inkscape:current-layer="layer1" /><defs
     id="defs1" /><g
     inkscape:label="Layer 1"
     inkscape:groupmode="layer"
     id="layer1"
     transform="translate(0.5,0.5)"><path
       style="fill:#999999;fill-opacity:1"
       d="m 25.597115,39.178198 c -3.268153,0.594824 -6.226723,1.51035 -8.721948,2.689242 -4.613081,2.179493 -7.8946087,5.389209 -7.8946087,9.380823 0,3.991613 3.2815277,7.201329 7.8946087,9.380822 4.613081,2.179493 10.800531,3.466455 17.624764,3.466455 6.824233,0 13.0122,-1.286962 17.625281,-3.466455 4.613081,-2.179493 7.894091,-5.389209 7.894091,-9.380822 0,-3.991614 -3.28101,-7.20133 -7.894091,-9.380823 -2.467518,-1.165801 -5.388957,-2.07377 -8.613945,-2.669088 l 1.334802,3.361552 c 2.246798,0.529076 4.282807,1.209877 5.997567,2.020032 4.080175,1.927717 6.17585,4.39255 6.17585,6.668327 0,2.275777 -2.095675,4.740093 -6.17585,6.66781 -4.080175,1.927716 -9.902477,3.17965 -16.343705,3.17965 -6.441228,0 -12.26353,-1.251934 -16.343705,-3.17965 -4.080175,-1.927717 -6.175851,-4.392033 -6.175851,-6.66781 0,-2.275777 2.095676,-4.74061 6.175851,-6.668327 1.743083,-0.823536 3.818286,-1.51351 6.109704,-2.04587 z"
       id="path3" /><g
       id="text2"
       transform="scale(0.9982417,1.0017614)"><path
         style="-inkscape-font-specification:'Montserrat, Normal'"
         d="M 31.21061,13.412333 V 5.3948827 h 0.698663 l 5.53204,6.9637283 H 37.074801 V 5.3948827 h 0.836106 V 13.412333 H 37.212243 L 31.691657,6.4486047 h 0.366512 v 6.9637283 z"
         id="path1" /><path
         style="-inkscape-font-specification:'Montserrat, Normal';fill:#4d4d4d"
         d="m 30.710937,4.8945312 v 1.0546875 h -0.05469 l 0.05469,0.068359 v 7.8945309 h 1.847657 V 8.3476563 l 4.412109,5.5644527 h 1.439453 v -1.052734 h 0.06641 l -0.06641,-0.08398 V 4.8945312 H 36.574219 V 10.464844 L 32.150391,4.8945312 Z"
         id="path2" /></g><path
       style="fill:#999999;fill-opacity:1"
       d="m 34.550781,16.63443 -15.15625,38.214844 15.166015,-9.607422 15.044922,9.306641 z m 0.002,8.13086 8.917968,22.460937 -8.927735,-5.523437 -8.957031,5.673828 z"
       id="path1-8" /></g></svg>
