<?xml version="1.0" encoding="UTF-8" standalone="no"?>
<!-- Created with Inkscape (http://www.inkscape.org/) -->

<svg
   width="1280"
   height="380"
   viewBox="0 0 338.66666 100.54172"
   version="1.1"
   id="svg5"
   xml:space="preserve"
   inkscape:version="1.2 (dc2aedaf03, 2022-05-15)"
   sodipodi:docname="pulsuus_logo.svg"
   inkscape:export-filename="..\..\..\..\Desktop\pulsuus_logo.png"
   inkscape:export-xdpi="96"
   inkscape:export-ydpi="96"
   xmlns:inkscape="http://www.inkscape.org/namespaces/inkscape"
   xmlns:sodipodi="http://sodipodi.sourceforge.net/DTD/sodipodi-0.dtd"
   xmlns="http://www.w3.org/2000/svg"
   xmlns:svg="http://www.w3.org/2000/svg"><sodipodi:namedview
     id="namedview7"
     pagecolor="#ffffff"
     bordercolor="#000000"
     borderopacity="0.25"
     inkscape:showpageshadow="2"
     inkscape:pageopacity="0.0"
     inkscape:pagecheckerboard="0"
     inkscape:deskcolor="#d1d1d1"
     inkscape:document-units="mm"
     showgrid="false"
     showborder="true"
     inkscape:zoom="1"
     inkscape:cx="655.5"
     inkscape:cy="190"
     inkscape:window-width="1920"
     inkscape:window-height="1017"
     inkscape:window-x="-8"
     inkscape:window-y="-8"
     inkscape:window-maximized="1"
     inkscape:current-layer="layer1" /><defs
     id="defs2" /><g
     inkscape:label="Layer 1"
     inkscape:groupmode="layer"
     id="layer1"><g
       id="g1830"
       transform="translate(-4.7625002)"><g
         id="path5906"
         transform="matrix(0.9985011,0,0,1.0015011,10.321537,1.4911e-4)"
         style="font-weight:300;font-size:58.3403px;font-family:Montserrat;-inkscape-font-specification:'Montserrat,  weight=250';fill:#000000;stroke:#000000;stroke-width:1.323;stroke-linecap:square;stroke-dasharray:none"><path
           style="color:#000000;-inkscape-font-specification:'Montserrat,  weight=250';fill:#000000;stroke:none;stroke-width:1.323;stroke-linecap:butt;stroke-dasharray:none"
           d="m 117.13956,66.414086 q -4.02548,0 -7.29253,-1.866889 -3.20872,-1.86689 -5.13395,-5.308968 -1.86689,-3.500418 -1.86689,-8.284323 0,-4.783904 1.86689,-8.225982 1.92523,-3.500418 5.13395,-5.367308 3.26705,-1.866889 7.29253,-1.866889 4.31719,0 7.70092,1.98357 3.44208,1.92523 5.36731,5.425648 1.98357,3.500418 1.98357,8.050961 0,4.550544 -1.98357,8.050962 -1.92523,3.500418 -5.36731,5.483988 -3.38373,1.92523 -7.70092,1.92523 z M 101.85441,77.498744 V 35.727088 h 2.80033 v 9.976191 l -0.46672,5.308968 0.5834,5.308967 v 21.17753 z m 15.11013,-13.709971 q 3.50042,0 6.30076,-1.575188 2.80033,-1.633529 4.37552,-4.550544 1.63353,-2.917015 1.63353,-6.709135 0,-3.850459 -1.63353,-6.709134 -1.57519,-2.917015 -4.37552,-4.492203 -2.80034,-1.633529 -6.30076,-1.633529 -3.50041,0 -6.30075,1.633529 -2.74199,1.575188 -4.37552,4.492203 -1.57519,2.858675 -1.57519,6.709134 0,3.79212 1.57519,6.709135 1.63353,2.917015 4.37552,4.550544 2.80034,1.575188 6.30075,1.575188 z"
           id="path5923" /><path
           style="color:#000000;-inkscape-font-specification:'Montserrat,  weight=250';fill:#000000;stroke:none;stroke-width:1.323;stroke-linecap:butt;stroke-dasharray:none"
           d="m 117.13867,34.832031 c -2.7859,0 -5.3395,0.652425 -7.61914,1.955078 h -0.002 l -0.004,0.002 c -1.67923,0.977009 -3.02406,2.382179 -4.19726,3.992188 v -5.714844 h -4.12305 v 43.09375 h 0.66016 3.58007 V 61.320312 c 1.15134,1.517207 2.45722,2.854617 4.08008,3.798829 l 0.004,0.002 h 0.002 c 2.27964,1.302653 4.83324,1.955078 7.61914,1.955078 2.97645,0 5.66839,-0.668438 8.0293,-2.011719 l 0.002,-0.002 c 2.39226,-1.378589 4.27522,-3.302175 5.61328,-5.732422 v -0.002 c 1.3824,-2.440208 2.07032,-5.24587 2.07032,-8.375 0,-3.126581 -0.68627,-5.930325 -2.06641,-8.369141 l -0.002,-0.002 c -1.33823,-2.43212 -3.2219,-4.33904 -5.61719,-5.679687 -2.35989,-1.381498 -5.05304,-2.070313 -8.0293,-2.070313 z m 0,1.322266 c 2.77682,0 5.21725,0.63422 7.36719,1.894531 l 0.006,0.002 0.006,0.0039 c 2.19151,1.225761 3.88338,2.935344 5.11133,5.167969 l 0.002,0.002 0.002,0.0039 c 1.26177,2.226644 1.89649,4.787026 1.89649,7.724609 0,2.937584 -0.63472,5.499918 -1.89649,7.726562 l -0.002,0.002 -0.002,0.0039 c -1.2287,2.233984 -2.92404,3.965496 -5.11914,5.230469 -2.14981,1.222261 -4.59293,1.835937 -7.3711,1.835937 -2.58139,0 -4.88647,-0.592767 -6.96289,-1.779297 -1.96669,-1.145122 -3.52693,-2.769273 -4.74219,-4.863281 v -1.857422 c 0.10816,0.232575 0.15178,0.499316 0.27344,0.724609 l 0.002,0.0059 0.002,0.0039 c 1.14039,2.03641 2.68813,3.64686 4.61523,4.794922 l 0.006,0.0039 0.008,0.0059 c 1.96954,1.10786 4.19218,1.660156 6.625,1.660156 2.43283,0 4.65547,-0.552296 6.625,-1.660156 l 0.004,-0.0039 0.004,-0.002 c 1.96827,-1.148164 3.52153,-2.765143 4.625,-4.808594 1.1453,-2.049155 1.71289,-4.404271 1.71289,-7.023437 0,-2.658181 -0.56829,-5.015559 -1.71875,-7.03125 -1.10243,-2.037832 -2.65335,-3.632355 -4.61914,-4.740234 -1.97051,-1.14946 -4.19631,-1.72461 -6.63282,-1.72461 -2.43649,0 -4.66426,0.575151 -6.63476,1.72461 -1.92997,1.109621 -3.47857,2.703506 -4.61914,4.740234 v 0.002 l -0.002,0.002 c -0.17495,0.317514 -0.24554,0.697026 -0.39257,1.03125 v -1.943359 c 1.2291,-2.220822 2.83941,-3.901709 4.85937,-5.078125 2.07642,-1.186529 4.3815,-1.78125 6.96289,-1.78125 z m -14.62304,0.234375 h 1.47851 v 6.392578 c -0.76003,1.497035 -1.20876,3.202522 -1.47851,5.027344 z m 14.44921,2.392578 c 2.23072,0 4.20352,0.514392 5.9668,1.542969 l 0.004,0.002 0.006,0.002 c 1.76101,0.99057 3.12127,2.386192 4.11718,4.230469 l 0.004,0.0078 0.004,0.0059 c 1.02554,1.794706 1.54687,3.907429 1.54687,6.380859 0,2.433099 -0.51951,4.548659 -1.54883,6.386719 l -0.004,0.0039 -0.002,0.0059 c -0.99561,1.84373 -2.35861,3.259491 -4.12109,4.289063 -1.76329,0.990964 -3.73987,1.488281 -5.97266,1.488281 -2.23117,0 -4.20642,-0.496787 -5.96875,-1.486328 -1.72278,-1.027771 -3.08927,-2.445299 -4.125,-4.291016 l -0.002,-0.0039 c -0.99184,-1.838355 -1.49414,-3.957752 -1.49414,-6.392578 0,-2.47506 0.50204,-4.589724 1.49023,-6.384766 v -0.002 c 1.03664,-1.850587 2.40509,-3.249953 4.12891,-4.240234 l 0.002,-0.002 h 0.002 c 1.76328,-1.028578 3.73608,-1.542969 5.96679,-1.542969 z m -13.32031,10.863281 -0.12109,1.375 0.48047,4.378906 c -0.32039,-1.366179 -0.4961,-2.839072 -0.4961,-4.445312 0,-0.472108 0.10887,-0.858477 0.13672,-1.308594 z m -1.1289,4.462891 c 0.28736,1.952576 0.75061,3.793364 1.59375,5.388672 v 17.341797 h -1.59375 z"
           id="path5925" /></g><g
         id="path5908"
         transform="matrix(0.9985011,0,0,1.0015011,10.321537,1.4911e-4)"
         style="font-weight:300;font-size:58.3403px;font-family:Montserrat;-inkscape-font-specification:'Montserrat,  weight=250';fill:#000000;stroke:#000000;stroke-width:1.323;stroke-linecap:square;stroke-dasharray:none"><path
           style="color:#000000;-inkscape-font-specification:'Montserrat,  weight=250';fill:#000000;stroke:none;stroke-width:1.323;stroke-linecap:butt;stroke-dasharray:none"
           d="m 153.60221,66.414086 q -3.9088,0 -6.76748,-1.400167 -2.85867,-1.458507 -4.43386,-4.317182 -1.51685,-2.917015 -1.51685,-7.175857 V 35.727088 h 2.91702 v 17.56043 q 0,5.133947 2.62531,7.817601 2.62531,2.683654 7.40922,2.683654 3.44208,0 5.95071,-1.458508 2.50863,-1.458507 3.85046,-4.083821 1.34183,-2.683654 1.34183,-6.300752 V 35.727088 h 2.91701 v 30.453637 h -2.80033 v -8.459344 l 0.40838,0.991786 q -1.34183,3.558758 -4.4922,5.659009 -3.09204,2.04191 -7.40922,2.04191 z"
           id="path5929" /><path
           style="color:#000000;-inkscape-font-specification:'Montserrat,  weight=250';fill:#000000;stroke:none;stroke-width:1.323;stroke-linecap:butt;stroke-dasharray:none"
           d="m 140.22266,35.066406 v 18.455078 c 0,2.917755 0.51977,5.418891 1.59179,7.480469 l 0.004,0.0078 0.004,0.0059 c 1.1088,2.012269 2.69313,3.558398 4.71093,4.587891 l 0.006,0.002 0.004,0.002 c 2.01274,0.985829 4.37375,1.46875 7.05859,1.46875 2.9824,0 5.59395,-0.713063 7.77344,-2.152344 h 0.002 l 0.002,-0.002 c 1.22417,-0.816118 2.21403,-1.834539 3.05468,-2.972656 v 4.892578 h 4.12305 V 35.066406 h -4.24023 v 16.878906 c 0,2.327139 -0.4299,4.318347 -1.26954,6 -0.84111,1.645664 -2.02611,2.901084 -3.59375,3.8125 -1.55877,0.906266 -3.41589,1.369141 -5.61718,1.369141 -3.06559,0 -5.32774,-0.838841 -6.9375,-2.484375 -1.60276,-1.638379 -2.43555,-4.045589 -2.43555,-7.355469 V 35.066406 Z m 1.32226,1.322266 h 1.59375 v 16.898437 c 0,3.535377 0.9168,6.341427 2.81445,8.28125 1.89066,1.932668 4.56986,2.882813 7.88282,2.882813 2.38814,0 4.49714,-0.510419 6.2832,-1.548828 1.7772,-1.033257 3.15944,-2.500717 4.10742,-4.355469 v -0.002 l 0.002,-0.002 c 0.0915,-0.183063 0.12255,-0.404881 0.20507,-0.59375 v 1.335937 c -0.86364,1.83958 -2.06195,3.385703 -3.78906,4.53711 -1.9428,1.282327 -4.27015,1.929687 -7.04297,1.929687 -2.52264,0 -4.6698,-0.449983 -6.46679,-1.328125 l -0.002,-0.002 c -1.78955,-0.913629 -3.15589,-2.243174 -4.14648,-4.037109 -0.94868,-1.826902 -1.44141,-4.105195 -1.44141,-6.863282 z m 24.0957,0 h 1.59375 v 29.130859 h -1.47851 v -5.919922 c 0.10325,-0.232217 0.27622,-0.411071 0.36719,-0.652343 l 0.0918,-0.244141 -0.50781,-1.234375 -1.18945,0.234375 c 0.70453,-1.709843 1.12304,-3.605096 1.12304,-5.757813 z"
           id="path5931" /></g><g
         id="path5910"
         transform="matrix(0.9985011,0,0,1.0015011,10.321537,1.4911e-4)"
         style="font-weight:300;font-size:58.3403px;font-family:Montserrat;-inkscape-font-specification:'Montserrat,  weight=250';fill:#000000;stroke:#000000;stroke-width:1.323;stroke-linecap:square;stroke-dasharray:none"><path
           style="color:#000000;-inkscape-font-specification:'Montserrat,  weight=250';fill:#000000;stroke:none;stroke-width:1.323;stroke-linecap:butt;stroke-dasharray:none"
           d="M 180.26376,66.180725 V 22.892221 h 2.91702 v 43.288504 z"
           id="path5935" /><path
           style="color:#000000;-inkscape-font-specification:'Montserrat,  weight=250';fill:#000000;stroke:none;stroke-width:1.323;stroke-linecap:butt;stroke-dasharray:none"
           d="m 179.60156,22.230469 v 44.611328 h 0.66211 3.57813 V 22.230469 Z m 1.32422,1.322265 h 1.59375 v 41.966797 h -1.59375 z"
           id="path5937" /></g><g
         id="path5912"
         transform="matrix(0.9985011,0,0,1.0015011,10.321537,1.4911e-4)"
         style="font-weight:300;font-size:58.3403px;font-family:Montserrat;-inkscape-font-specification:'Montserrat,  weight=250';fill:#000000;stroke:#000000;stroke-width:1.323;stroke-linecap:square;stroke-dasharray:none"><path
           style="color:#000000;-inkscape-font-specification:'Montserrat,  weight=250';fill:#000000;stroke:none;stroke-width:1.323;stroke-linecap:butt;stroke-dasharray:none"
           d="m 203.19148,66.414086 q -3.79212,0 -7.11752,-1.108465 -3.26705,-1.108466 -5.0756,-2.800335 l 1.34182,-2.333612 q 1.75021,1.516848 4.66723,2.625314 2.91701,1.050125 6.30075,1.050125 4.78391,0 6.88416,-1.575188 2.10025,-1.575188 2.10025,-4.142162 0,-1.866889 -1.10847,-2.917015 -1.05012,-1.108465 -2.85867,-1.691868 -1.80855,-0.583403 -3.96714,-0.933445 -2.1586,-0.408382 -4.31719,-0.875105 -2.15859,-0.466722 -3.96714,-1.341827 -1.80855,-0.875104 -2.91701,-2.391952 -1.05013,-1.575188 -1.05013,-4.142161 0,-2.333612 1.28349,-4.200502 1.28349,-1.86689 3.85046,-2.975355 2.56697,-1.166806 6.41743,-1.166806 2.85868,0 5.71735,0.816764 2.91702,0.816764 4.72557,2.158591 l -1.34183,2.333612 q -1.92523,-1.458508 -4.31718,-2.100251 -2.39196,-0.641743 -4.84225,-0.641743 -4.43386,0 -6.53411,1.633528 -2.04191,1.633529 -2.04191,4.083821 0,1.92523 1.05012,3.092036 1.10847,1.108466 2.91702,1.750209 1.80855,0.583403 3.96714,0.991785 2.15859,0.350042 4.31718,0.816765 2.15859,0.466722 3.96714,1.341827 1.80855,0.816764 2.85868,2.333612 1.10846,1.458507 1.10846,3.96714 0,2.508633 -1.40017,4.375523 -1.34182,1.866889 -4.02548,2.917015 -2.68365,1.050125 -6.59245,1.050125 z"
           id="path5941" /><path
           style="color:#000000;-inkscape-font-specification:'Montserrat,  weight=250';fill:#000000;stroke:none;stroke-width:1.323;stroke-linecap:butt;stroke-dasharray:none"
           d="m 203.6582,34.832031 c -2.632,0 -4.86345,0.396331 -6.6875,1.22461 -0.001,5.61e-4 -0.003,0.0014 -0.004,0.002 -1.7924,0.776183 -3.18565,1.842484 -4.1211,3.203125 -0.92855,1.350618 -1.40039,2.897211 -1.40039,4.574218 0,1.801514 0.37004,3.321658 1.16211,4.509766 l 0.008,0.01172 0.008,0.01172 c 0.80433,1.10067 1.86922,1.972066 3.16211,2.597656 1.25707,0.608262 2.63,1.071448 4.11523,1.392578 1.44462,0.312352 2.88927,0.605582 4.33398,0.878906 h 0.01 l 0.008,0.002 c 1.41056,0.228739 2.70179,0.532961 3.8711,0.910157 1.12481,0.362841 1.97054,0.874173 2.58007,1.517578 l 0.0137,0.01172 0.0117,0.01367 c 0.5969,0.565491 0.90234,1.32187 0.90234,2.435547 0,1.530917 -0.57375,2.666639 -1.83594,3.613281 -1.20731,0.905485 -3.36966,1.44336 -6.48633,1.44336 -2.18516,0 -4.20393,-0.338662 -6.07031,-1.009766 -1.88979,-0.718592 -3.37614,-1.560367 -4.46484,-2.503906 l -0.60742,-0.525391 -2.00196,3.484375 0.38281,0.357422 c 1.29818,1.214426 3.07463,2.183416 5.31446,2.94336 h 0.002 l 0.002,0.002 c 2.28849,0.762829 4.73365,1.142578 7.32618,1.142578 2.6651,0 4.9434,-0.355909 6.83398,-1.095703 1.87612,-0.734132 3.33422,-1.780125 4.31641,-3.144532 1.01523,-1.356898 1.52929,-2.971323 1.52929,-4.763671 0,-1.763746 -0.39482,-3.239044 -1.23828,-4.355469 -0.76669,-1.10197 -1.81577,-1.957558 -3.10742,-2.542969 -1.25562,-0.606986 -2.62626,-1.069951 -4.10937,-1.390625 -1.4443,-0.31228 -2.88936,-0.585731 -4.33399,-0.820312 l -0.01,-0.002 c -0.003,-4.27e-4 -0.005,-0.0015 -0.008,-0.002 -1.40106,-0.265771 -2.68616,-0.587898 -3.85156,-0.96289 -9.7e-4,-3.46e-4 -9.8e-4,-0.0016 -0.002,-0.002 -1.12461,-0.399436 -1.9992,-0.930993 -2.6543,-1.582032 -0.57111,-0.641676 -0.87109,-1.479731 -0.87109,-2.634765 0,-1.447382 0.55806,-2.573484 1.78906,-3.560547 1.22224,-0.949943 3.25128,-1.494141 6.125,-1.494141 1.57578,0 3.13183,0.205961 4.67187,0.619141 1.5164,0.406839 2.87229,1.067367 4.08789,1.988281 l 0.59961,0.453125 2.00977,-3.494141 -0.47266,-0.351562 c -1.29036,-0.957369 -2.93927,-1.703436 -4.93945,-2.263672 h -0.002 c -1.96115,-0.560146 -3.92835,-0.841797 -5.89649,-0.841797 z m 0,1.322266 c 1.84279,0 3.68538,0.26446 5.53516,0.792969 h 0.002 0.002 c 1.66412,0.465954 2.90737,1.105212 3.9746,1.808593 l -0.68554,1.19336 c -1.19406,-0.800717 -2.44739,-1.502271 -3.87305,-1.884766 -1.64923,-0.442476 -3.3224,-0.666015 -5.01367,-0.666016 -3.03714,0 -5.36123,0.545931 -6.93945,1.773438 l -0.004,0.0039 -0.004,0.002 c -1.48725,1.189802 -2.28906,2.782345 -2.28906,4.59961 0,1.40375 0.39766,2.622827 1.21875,3.535156 l 0.0117,0.01367 0.0117,0.01172 c 0.82103,0.821032 1.88539,1.452526 3.16406,1.90625 l 0.01,0.002 0.008,0.0039 c 1.23596,0.398696 2.58639,0.735042 4.04883,1.011719 l 0.008,0.002 0.008,0.002 c 1.4276,0.231502 2.85528,0.501805 4.28321,0.810547 1.39288,0.301165 2.66598,0.730519 3.82031,1.289062 l 0.008,0.0039 0.008,0.0039 c 1.10948,0.501056 1.95538,1.196621 2.58594,2.107422 l 0.01,0.01172 0.008,0.01172 c 0.62843,0.826882 0.97461,1.993363 0.97461,3.56836 0,1.549358 -0.42142,2.847694 -1.26953,3.978515 l -0.004,0.0039 -0.004,0.0059 c -0.80687,1.122618 -2.02844,2.022255 -3.72851,2.6875 -1.68761,0.660371 -3.80493,1.003906 -6.35156,1.003906 -2.4621,0 -4.76007,-0.358027 -6.9043,-1.072266 l -0.004,-0.002 c -1.89745,-0.644232 -3.32481,-1.45206 -4.41406,-2.359375 l 0.72461,-1.259765 c 1.16042,0.884698 2.46251,1.705639 4.17773,2.357422 l 0.006,0.002 0.006,0.002 c 2.02137,0.727692 4.20114,1.087891 6.52539,1.08789 3.26187,0 5.68824,-0.512267 7.28125,-1.707031 1.53814,-1.153606 2.36328,-2.780163 2.36328,-4.671875 0,-1.367402 -0.43211,-2.545026 -1.30273,-3.378906 -0.78951,-0.829076 -1.84006,-1.446137 -3.12109,-1.859375 -1.2373,-0.399128 -2.5878,-0.715443 -4.04883,-0.953125 l -0.0156,-0.0039 c -1.42815,-0.270332 -2.85496,-0.55838 -4.2832,-0.867188 -1.39289,-0.301165 -2.66599,-0.732472 -3.82031,-1.291015 -1.11495,-0.539491 -1.98934,-1.26209 -2.66211,-2.179688 -0.60237,-0.910878 -0.93164,-2.146662 -0.93164,-3.759766 0,-1.434471 0.3852,-2.687605 1.16797,-3.826171 0.77365,-1.125314 1.94429,-2.040885 3.56836,-2.742188 l 0.004,-0.002 0.006,-0.002 c 1.59789,-0.726314 3.64438,-1.109375 6.14453,-1.109375 z"
           id="path5943" /></g><g
         id="path5914"
         transform="matrix(0.9985011,0,0,1.0015011,10.321537,1.4911e-4)"
         style="font-weight:300;font-size:58.3403px;font-family:Montserrat;-inkscape-font-specification:'Montserrat,  weight=250';fill:#999999;stroke:#000000;stroke-width:1.32292;stroke-linecap:square"><path
           style="color:#000000;-inkscape-font-specification:'Montserrat,  weight=250';fill:#999999;stroke:none;stroke-linecap:butt"
           d="m 235.74541,66.414086 q -3.9088,0 -6.76748,-1.400167 -2.85867,-1.458507 -4.43386,-4.317182 -1.51685,-2.917015 -1.51685,-7.175857 V 35.727088 h 2.91702 v 17.56043 q 0,5.133947 2.62531,7.817601 2.62531,2.683654 7.40922,2.683654 3.44208,0 5.95071,-1.458508 2.50863,-1.458507 3.85046,-4.083821 1.34183,-2.683654 1.34183,-6.300752 V 35.727088 h 2.91701 v 30.453637 h -2.80033 v -8.459344 l 0.40838,0.991786 q -1.34183,3.558758 -4.4922,5.659009 -3.09204,2.04191 -7.40922,2.04191 z"
           id="path5947" /><path
           style="color:#000000;-inkscape-font-specification:'Montserrat,  weight=250';fill:#999999;stroke:none;stroke-linecap:butt"
           d="m 222.36523,35.066406 v 18.455078 c 0,2.917755 0.51978,5.418891 1.5918,7.480469 l 0.004,0.0078 0.004,0.0059 c 1.10881,2.012269 2.69509,3.558398 4.71289,4.587891 l 0.004,0.002 0.006,0.002 c 2.01274,0.985829 4.37375,1.46875 7.05859,1.46875 2.98241,0 5.59396,-0.713063 7.77344,-2.152344 l 0.002,-0.002 c 1.22418,-0.816118 2.21404,-1.834539 3.05469,-2.972656 v 4.892578 h 4.125 V 35.066406 h -4.24023 v 16.878906 c 0,2.329603 -0.43205,4.32308 -1.27344,6.00586 -0.84092,1.642458 -2.02428,2.896429 -3.58984,3.80664 -1.55878,0.906266 -3.41785,1.369141 -5.61914,1.369141 -3.06559,0 -5.32579,-0.838841 -6.93555,-2.484375 -1.60276,-1.638379 -2.4375,-4.045589 -2.4375,-7.355469 V 35.066406 Z m 1.32422,1.322266 h 1.59375 v 16.898437 c 0,3.535377 0.91681,6.341427 2.81446,8.28125 1.89065,1.932668 4.5679,2.882813 7.88086,2.882813 2.38814,0 4.49714,-0.510419 6.2832,-1.548828 1.7772,-1.033257 3.15943,-2.500717 4.10742,-4.355469 l 0.002,-0.002 v -0.002 c 0.0915,-0.183027 0.12257,-0.40492 0.20508,-0.59375 v 1.335937 c -0.86364,1.83958 -2.06195,3.385703 -3.78906,4.53711 -1.9425,1.281683 -4.2689,1.929687 -7.04102,1.929687 -2.52264,0 -4.6698,-0.449985 -6.46679,-1.328125 l -0.002,-0.002 c -1.78955,-0.913629 -3.15784,-2.243173 -4.14843,-4.037109 -0.94868,-1.826902 -1.43946,-4.105195 -1.43946,-6.863282 z m 24.09375,0 h 1.59375 v 29.130859 h -1.47656 v -5.923828 c 0.10258,-0.230916 0.27479,-0.408571 0.36523,-0.648437 l 0.0918,-0.244141 -0.50781,-1.234375 -1.18945,0.234375 c 0.70457,-1.709882 1.12304,-3.605029 1.12304,-5.757813 z"
           id="path5949" /></g><g
         id="path5916"
         transform="matrix(0.9985011,0,0,1.0015011,10.321537,1.4911e-4)"
         style="font-weight:300;font-size:58.3403px;font-family:Montserrat;-inkscape-font-specification:'Montserrat,  weight=250';fill:#999999;stroke:#000000;stroke-width:1.32292;stroke-linecap:square"><path
           style="color:#000000;-inkscape-font-specification:'Montserrat,  weight=250';fill:#999999;stroke:none;stroke-linecap:butt"
           d="m 274.7751,66.414086 q -3.9088,0 -6.76747,-1.400167 -2.85868,-1.458507 -4.43387,-4.317182 -1.51684,-2.917015 -1.51684,-7.175857 V 35.727088 h 2.91701 v 17.56043 q 0,5.133947 2.62531,7.817601 2.62532,2.683654 7.40922,2.683654 3.44208,0 5.95071,-1.458508 2.50864,-1.458507 3.85046,-4.083821 1.34183,-2.683654 1.34183,-6.300752 V 35.727088 h 2.91701 v 30.453637 h -2.80033 v -8.459344 l 0.40838,0.991786 q -1.34182,3.558758 -4.4922,5.659009 -3.09204,2.04191 -7.40922,2.04191 z"
           id="path5953" /><path
           style="color:#000000;-inkscape-font-specification:'Montserrat,  weight=250';fill:#999999;stroke:none;stroke-linecap:butt"
           d="m 261.39453,35.066406 v 18.455078 c 0,2.917755 0.51978,5.418891 1.5918,7.480469 l 0.004,0.0078 0.004,0.0059 c 1.1088,2.01227 2.69508,3.558398 4.71289,4.587891 l 0.004,0.002 0.006,0.002 c 2.01273,0.985829 4.37375,1.46875 7.05859,1.46875 2.9824,0 5.59395,-0.713063 7.77344,-2.152344 h 0.002 v -0.002 c 1.22543,-0.816949 2.21554,-1.83697 3.05664,-2.976563 v 4.896485 h 4.12305 V 35.066406 h -4.24024 v 16.878906 c 0,2.327139 -0.42989,4.318347 -1.26953,6 -0.84111,1.645662 -2.0261,2.901084 -3.59375,3.8125 -1.55877,0.906266 -3.41785,1.369141 -5.61914,1.369141 -3.06557,0 -5.32578,-0.83884 -6.93554,-2.484375 -1.60276,-1.638379 -2.4375,-4.045589 -2.4375,-7.355469 V 35.066406 Z m 1.32422,1.322266 h 1.59375 v 16.898437 c 0,3.535377 0.9168,6.341427 2.81445,8.28125 1.89066,1.932667 4.56791,2.882813 7.88086,2.882813 2.38815,0 4.49714,-0.510419 6.28321,-1.548828 1.7772,-1.033257 3.15944,-2.500716 4.10742,-4.355469 l 0.002,-0.002 v -0.002 c 0.0924,-0.184827 0.1238,-0.408865 0.20703,-0.59961 v 1.339844 c -0.86365,1.840609 -2.06126,3.387194 -3.78906,4.539063 -1.9428,1.282327 -4.27015,1.929687 -7.04297,1.929687 -2.52264,0 -4.66981,-0.449985 -6.4668,-1.328125 l -0.002,-0.002 c -1.78956,-0.913629 -3.15784,-2.243174 -4.14844,-4.037109 -0.94867,-1.826902 -1.43945,-4.105195 -1.43945,-6.863282 z m 24.09375,0 h 1.59375 v 29.130859 h -1.47656 v -5.923828 c 0.10257,-0.230917 0.27479,-0.408571 0.36523,-0.648437 l 0.0918,-0.244141 -0.50781,-1.234375 -1.18946,0.236328 c 0.70504,-1.710292 1.12305,-3.606274 1.12305,-5.759766 z"
           id="path5955" /></g><g
         id="path5918"
         transform="matrix(0.9985011,0,0,1.0015011,10.321537,1.4911e-4)"
         style="font-weight:300;font-size:58.3403px;font-family:Montserrat;-inkscape-font-specification:'Montserrat,  weight=250';fill:#999999;stroke:#000000;stroke-width:1.32292;stroke-linecap:square"><path
           style="color:#000000;-inkscape-font-specification:'Montserrat,  weight=250';fill:#999999;stroke:none;stroke-linecap:butt"
           d="m 309.13757,66.414086 q -3.79212,0 -7.11752,-1.108465 -3.26705,-1.108466 -5.0756,-2.800335 l 1.34182,-2.333612 q 1.75021,1.516848 4.66723,2.625314 2.91701,1.050125 6.30075,1.050125 4.78391,0 6.88416,-1.575188 2.10025,-1.575188 2.10025,-4.142162 0,-1.866889 -1.10847,-2.917015 -1.05012,-1.108465 -2.85867,-1.691868 -1.80855,-0.583403 -3.96714,-0.933445 -2.15859,-0.408382 -4.31719,-0.875105 -2.15859,-0.466722 -3.96714,-1.341827 -1.80855,-0.875104 -2.91701,-2.391952 -1.05013,-1.575188 -1.05013,-4.142161 0,-2.333612 1.28349,-4.200502 1.28349,-1.86689 3.85046,-2.975355 2.56697,-1.166806 6.41743,-1.166806 2.85868,0 5.71735,0.816764 2.91702,0.816764 4.72557,2.158591 l -1.34183,2.333612 q -1.92523,-1.458508 -4.31718,-2.100251 -2.39195,-0.641743 -4.84225,-0.641743 -4.43386,0 -6.53411,1.633528 -2.04191,1.633529 -2.04191,4.083821 0,1.92523 1.05012,3.092036 1.10847,1.108466 2.91702,1.750209 1.80855,0.583403 3.96714,0.991785 2.15859,0.350042 4.31718,0.816765 2.15859,0.466722 3.96714,1.341827 1.80855,0.816764 2.85868,2.333612 1.10846,1.458507 1.10846,3.96714 0,2.508633 -1.40016,4.375523 -1.34183,1.866889 -4.02549,2.917015 -2.68365,1.050125 -6.59245,1.050125 z"
           id="path5959" /><path
           style="color:#000000;-inkscape-font-specification:'Montserrat,  weight=250';fill:#999999;stroke:none;stroke-linecap:butt"
           d="m 309.60352,34.832031 c -2.63379,0 -4.86472,0.397137 -6.68946,1.226563 -1.79319,0.776244 -3.18731,1.842066 -4.12304,3.203125 -0.92856,1.350618 -1.4004,2.897211 -1.4004,4.574218 0,1.801514 0.37004,3.321658 1.16211,4.509766 l 0.008,0.01172 0.008,0.01172 c 0.80433,1.10067 1.87118,1.972066 3.16406,2.597656 1.25708,0.608262 2.63001,1.071448 4.11524,1.392578 1.44463,0.312351 2.88927,0.605582 4.33398,0.878906 h 0.008 l 0.01,0.002 c 1.41055,0.228739 2.69983,0.532961 3.86914,0.910157 1.12481,0.362841 1.97249,0.874173 2.58203,1.517578 l 0.0117,0.01172 0.0137,0.01367 c 0.59691,0.565491 0.90234,1.32187 0.90234,2.435547 0,1.530917 -0.57374,2.666639 -1.83593,3.613281 -1.20732,0.905485 -3.37161,1.44336 -6.48828,1.44336 -2.18517,0 -4.20393,-0.338662 -6.07032,-1.009766 -1.88979,-0.718592 -3.37614,-1.560367 -4.46484,-2.503906 l -0.60547,-0.525391 -2.00391,3.484375 0.38282,0.357422 c 1.29818,1.214426 3.07462,2.183416 5.31445,2.94336 h 0.002 l 0.002,0.002 c 2.28849,0.762829 4.73364,1.142578 7.32617,1.142578 2.6651,0 4.9434,-0.355909 6.83398,-1.095703 1.87612,-0.734132 3.33617,-1.780126 4.31836,-3.144532 1.01523,-1.356898 1.52735,-2.971324 1.52735,-4.763671 0,-1.763743 -0.39287,-3.239044 -1.23633,-4.355469 -0.7667,-1.101974 -1.81773,-1.957556 -3.10938,-2.542969 -1.25561,-0.606986 -2.62626,-1.069951 -4.10937,-1.390625 -1.4443,-0.31228 -2.88936,-0.585731 -4.33399,-0.820312 l -0.01,-0.002 c -0.003,-4.27e-4 -0.005,-0.0015 -0.008,-0.002 -1.40324,-0.266182 -2.68864,-0.589104 -3.85547,-0.964843 -1.1247,-0.399708 -1.99742,-0.93253 -2.65235,-1.583985 -0.57038,-0.641516 -0.87109,-1.478528 -0.87109,-2.632812 0,-1.447896 0.5591,-2.575187 1.79101,-3.5625 1.22243,-0.949093 3.25267,-1.492188 6.125,-1.492188 1.57579,0 3.12989,0.205961 4.66993,0.619141 1.5164,0.406839 2.87423,1.067367 4.08984,1.988281 l 0.59766,0.453125 2.00976,-3.494141 -0.47265,-0.351562 c -1.29079,-0.957682 -2.94034,-1.703375 -4.94141,-2.263672 -1.96052,-0.559784 -3.92898,-0.841797 -5.89648,-0.841797 z m 0,1.322266 c 1.84278,0 3.68733,0.26446 5.5371,0.792969 h 0.002 c 1.66511,0.46623 2.90904,1.106618 3.97656,1.810546 l -0.68555,1.191407 c -1.19406,-0.800717 -2.44738,-1.502271 -3.87304,-1.884766 -1.64923,-0.442476 -3.3224,-0.666015 -5.01368,-0.666016 -3.03713,0 -5.36318,0.545931 -6.9414,1.773438 l -0.004,0.0039 -0.004,0.002 c -1.48725,1.189802 -2.28907,2.782345 -2.28907,4.59961 0,1.40375 0.39961,2.622827 1.22071,3.535156 l 0.01,0.01367 0.0137,0.01172 c 0.82104,0.821032 1.88539,1.452526 3.16407,1.90625 l 0.008,0.002 0.01,0.0039 c 1.23596,0.398696 2.58445,0.735042 4.04688,1.011719 l 0.008,0.002 0.01,0.002 c 1.42759,0.231502 2.85527,0.501805 4.2832,0.810547 1.39289,0.301165 2.66404,0.730519 3.81836,1.289062 l 0.008,0.0039 0.008,0.0039 c 1.10948,0.501056 1.95733,1.196621 2.58789,2.107422 l 0.008,0.01172 0.01,0.01172 c 0.62843,0.826882 0.97266,1.993363 0.97266,3.56836 0,1.549358 -0.41947,2.847694 -1.26758,3.978515 l -0.004,0.0039 -0.004,0.0059 c -0.80688,1.122619 -2.03039,2.022255 -3.73047,2.6875 -1.68761,0.660371 -3.80493,1.003906 -6.35156,1.003906 -2.4621,0 -4.76007,-0.358027 -6.9043,-1.072266 l -0.004,-0.002 c -1.89746,-0.644232 -3.32482,-1.45206 -4.41407,-2.359375 l 0.72461,-1.259765 c 1.16063,0.8851 2.46386,1.705407 4.17969,2.357422 l 0.006,0.002 0.004,0.002 c 2.02136,0.727692 4.20114,1.087891 6.52539,1.08789 3.26187,0 5.68823,-0.512267 7.28125,-1.707031 1.53814,-1.153606 2.36523,-2.780163 2.36523,-4.671875 0,-1.367397 -0.43212,-2.545027 -1.30273,-3.378906 -0.78951,-0.829079 -1.84201,-1.446137 -3.12305,-1.859375 -1.23673,-0.398946 -2.58661,-0.715479 -4.04688,-0.953125 l -0.008,-0.002 c -1.43078,-0.270759 -2.86209,-0.559764 -4.29297,-0.869141 -1.39289,-0.301165 -2.66403,-0.732472 -3.81836,-1.291015 -1.11357,-0.538824 -1.98771,-1.261756 -2.66015,-2.177735 -0.60321,-0.911066 -0.9336,-2.147433 -0.9336,-3.761719 0,-1.434471 0.38325,-2.687605 1.16602,-3.826171 0.77365,-1.125314 1.94429,-2.040885 3.56836,-2.742188 l 0.006,-0.002 0.006,-0.002 c 1.59789,-0.726314 3.64242,-1.109375 6.14258,-1.109375 z"
           id="path5961" /></g><g
         id="g26883"
         transform="matrix(0.77800504,0,0,0.77800504,-86.969227,-139.06394)"
         style="stroke-width:1.28534"><path
           style="fill:#999999;stroke:none;stroke-width:1.7004;stroke-dasharray:none"
           d="M 133.0485,219.51663 V 195.6585 l 27.19733,0.0478 27.19733,0.0478 0.045,13.11671 c 0.0411,11.98489 0.0647,13.20033 0.27307,14.08592 0.84871,3.60658 2.27361,6.224 4.7202,8.67059 1.54868,1.54867 2.82294,2.45582 4.71708,3.35806 5.4621,2.60177 11.84983,2.11003 16.95301,-1.30509 1.31176,-0.87785 3.56609,-3.13218 4.44394,-4.44394 0.89727,-1.34079 1.84384,-3.34553 2.26332,-4.79349 0.70286,-2.42618 0.70977,-2.58352 0.7106,-16.18589 l 7.6e-4,-12.56748 h 3.42456 3.42456 v 12.59317 c 0,10.52753 -0.0322,12.83911 -0.19655,14.09251 -0.71531,5.45669 -3.00662,10.13873 -6.83551,13.96762 -3.47379,3.47379 -7.86994,5.77987 -12.71696,6.67093 -2.16143,0.39735 -6.15513,0.39735 -8.31656,0 -4.84702,-0.89106 -9.24317,-3.19714 -12.71696,-6.67093 -3.82889,-3.82889 -6.1202,-8.51093 -6.83551,-13.96762 -0.15998,-1.22035 -0.19655,-3.2054 -0.19655,-10.66795 v -9.16862 h -20.41812 -20.41813 v 20.41813 20.41812 h -3.35994 -3.35995 z"
           id="path26151" /><path
           style="fill:#000000;stroke:none;stroke-width:1.7004;stroke-dasharray:none"
           d="m 133.07979,277.78187 c 0.0461,-14.73909 0.003,-13.95461 0.94096,-17.22465 1.11401,-3.88491 3.05049,-7.11928 6.07071,-10.13951 3.65739,-3.65739 7.77003,-5.80008 12.92287,-6.73284 1.78563,-0.32324 5.94796,-0.32881 7.6891,-0.0103 4.89554,0.89555 8.92027,2.88115 12.38223,6.10877 4.26624,3.97744 6.88668,9.18962 7.51182,14.94135 0.0826,0.76038 0.13639,4.87248 0.13639,10.43521 v 9.18033 h 20.41812 20.41813 v -20.48274 -20.48274 h 3.42456 3.42456 v 23.84268 23.84269 h -27.20263 -27.20263 l -7.7e-4,-12.43826 c -7.8e-4,-13.2951 -0.017,-13.68801 -0.65796,-15.97223 -1.5786,-5.62579 -6.14126,-10.18845 -11.76705,-11.76705 -9.11186,-2.55679 -18.62642,2.73396 -21.16111,11.76705 -0.64095,2.28422 -0.65713,2.67713 -0.65795,15.97223 l -7.5e-4,12.43826 h -3.36507 -3.36507 z"
           id="path26145" /></g></g></g></svg>
